<?xml version="1.0" encoding="UTF-8"?>
<svg xmlns="http://www.w3.org/2000/svg" id="Layer_1" data-name="Layer 1" viewBox="0 0 24 24">
  <path d="m16.867,15.981l5.222-8h1.911l-5.222,8h-1.911Zm-4.867,5.019c-4.962,0-9-4.037-9-9S7.038,3,12,3c2.656,0,5.04,1.164,6.689,3h3.687C20.298,2.419,16.43,0,12,0,5.383,0,0,5.383,0,12s5.383,12,12,12c4.43,0,8.298-2.419,10.376-6h-3.687c-1.649,1.836-4.033,3-6.689,3Zm7.5-11.769c0-.69-.56-1.25-1.25-1.25s-1.25.56-1.25,1.25.56,1.25,1.25,1.25,1.25-.56,1.25-1.25Zm-12.9,1.269v.674c.559-.216,1.204-.261,1.895.042.737.324,1.307,1,1.458,1.79.305,1.597-.911,2.994-2.453,2.994-1.381,0-2.5-1.119-2.5-2.5v-3c0-1.381,1.119-2.5,2.5-2.5h2v1.6h-2c-.497,0-.9.403-.9.9Zm0,3c0,.372.227.692.55.829.108.046.226.071.35.071.496,0,.9-.404.9-.9s-.404-.9-.9-.9-.9.404-.9.9Zm16.15-.019c-.69,0-1.25.56-1.25,1.25s.56,1.25,1.25,1.25,1.25-.56,1.25-1.25-.56-1.25-1.25-1.25Zm-9.25-5.481c1.381,0,2.5,1.119,2.5,2.5v3c0,1.381-1.119,2.5-2.5,2.5s-2.5-1.119-2.5-2.5v-3c0-1.381,1.119-2.5,2.5-2.5Zm0,1.6c-.496,0-.9.404-.9.9v3c0,.496.404.9.9.9s.9-.404.9-.9v-3c0-.496-.404-.9-.9-.9Z"/>
</svg>
