<?xml version="1.0" encoding="UTF-8"?>
<svg xmlns="http://www.w3.org/2000/svg" id="Layer_1" data-name="Layer 1" viewBox="0 0 24 24">
  <path d="m18.689,18h3.687c-2.079,3.581-5.946,6-10.376,6C5.383,24,0,18.617,0,12S5.383,0,12,0c4.43,0,8.298,2.419,10.376,6h-3.687c-1.649-1.836-4.033-3-6.689-3C7.037,3,3,7.038,3,12s4.037,9,9,9c2.656,0,5.04-1.164,6.689-3Zm-5.189-10c1.381,0,2.5,1.119,2.5,2.5v3c0,1.381-1.119,2.5-2.5,2.5s-2.5-1.119-2.5-2.5v-3c0-1.381,1.119-2.5,2.5-2.5Zm0,1.6c-.496,0-.9.404-.9.9v3c0,.496.404.9.9.9s.9-.404.9-.9v-3c0-.496-.404-.9-.9-.9Zm9.25,3.881c-.69,0-1.25.56-1.25,1.25s.56,1.25,1.25,1.25,1.25-.56,1.25-1.25-.56-1.25-1.25-1.25Zm-3.25-4.25c0-.69-.56-1.25-1.25-1.25s-1.25.56-1.25,1.25.56,1.25,1.25,1.25,1.25-.56,1.25-1.25Zm-.722,6.75l5.222-8h-1.911l-5.222,8h1.911Zm-12.993-4.29c-.329-.391-.535-.889-.535-1.44,0-1.243,1.007-2.25,2.25-2.25s2.25,1.007,2.25,2.25c0,.551-.206,1.049-.535,1.44.481.456.784,1.096.784,1.81,0,1.38-1.119,2.499-2.499,2.499s-2.499-1.119-2.499-2.499c0-.714.303-1.355.784-1.81Zm2.615,1.81c0-.496-.403-.899-.899-.899s-.899.403-.899.899.403.899.899.899.899-.403.899-.899Zm-1.549-3.251c0,.358.292.65.65.65s.65-.292.65-.65-.292-.65-.65-.65-.65.292-.65.65Z"/>
</svg>
